<svg width="40" height="40" viewBox="0 0 40 40" fill="none" xmlns="http://www.w3.org/2000/svg">
<rect width="40" height="40" rx="20" fill="white"/>
<path d="M12.0998 9.7998H15.0998C15.6031 9.7998 16.1625 9.97003 16.5461 10.3535L16.5656 10.373L16.5881 10.3906C16.9682 10.6949 17.2188 11.1684 17.3049 11.7705C17.4089 12.6969 17.6171 13.6381 18.0353 14.585V14.5859C18.1892 14.9708 18.1966 15.3666 18.1096 15.8018C18.0349 16.1752 17.8041 16.5824 17.5344 16.9502L16.6926 17.6055L16.343 17.877L16.5715 18.2568C17.8137 20.3272 19.5725 22.0859 21.6428 23.3281L21.9777 23.5293L22.2531 23.2529L23.1535 22.3535C23.4742 22.0329 23.777 21.8772 24.2824 21.793L24.2902 21.792L24.298 21.79C24.7332 21.703 25.129 21.7104 25.5139 21.8643L25.5275 21.8691L25.5422 21.874C26.4648 22.1816 27.2832 22.386 28.1916 22.5879L28.2101 22.5918L28.2297 22.5947C28.8319 22.6808 29.3053 22.9322 29.6096 23.3125C29.9587 23.7491 30.2004 24.342 30.2004 24.7998V27.7998C30.2004 28.1096 30.124 28.4358 30.0373 28.7041C29.8546 29.0646 29.7066 29.2611 29.5226 29.3838C29.4337 29.4431 29.3472 29.5075 29.2717 29.5645C29.1926 29.6242 29.1239 29.6774 29.0529 29.7266C28.9116 29.8244 28.7943 29.8862 28.6789 29.915L28.5441 29.9482L28.4465 30.0459C28.3615 30.1309 28.2009 30.2002 28.0002 30.2002H27.7287C24.6182 29.9056 21.6041 28.8348 18.9777 27.084L18.9699 27.0791L18.5168 26.7803C16.2763 25.2601 14.3845 23.3169 12.9211 21.0303C11.2669 18.402 10.1939 15.3836 9.79999 12.2666C9.80031 11.8558 9.8074 11.5592 9.87421 11.3584L9.88007 11.3398L9.88495 11.3213C9.95725 11.0321 10.0988 10.8086 10.3537 10.5537C10.6755 10.2319 10.8793 10.0459 11.1213 9.98535L11.175 9.97168L11.2238 9.94727C11.5098 9.80431 11.7043 9.79981 12.0998 9.7998ZM12.0998 10.2998C12.0097 10.2998 11.8912 10.2988 11.7678 10.3193C11.6667 10.3362 11.5737 10.3672 11.4777 10.4082C11.3271 10.4266 11.1806 10.4795 11.05 10.584C10.9313 10.6789 10.8506 10.7966 10.7922 10.9014C10.6906 11.0057 10.5677 11.1452 10.4523 11.376L10.3996 11.4814V12.126L10.4025 12.1514C10.7105 15.1287 11.7374 18.1083 13.4865 20.6807C15.0238 23.0355 17.0715 25.082 19.4269 26.6182L19.4308 26.6211C21.9974 28.2636 24.9673 29.2864 27.9318 29.6953L27.966 29.7002H28.0002C28.0903 29.7002 28.2088 29.7012 28.3322 29.6807C28.4681 29.658 28.5913 29.6131 28.7238 29.5469C28.7601 29.5287 28.7906 29.5153 28.8342 29.4961C28.872 29.4794 28.933 29.4528 28.9943 29.416C29.1482 29.3237 29.2598 29.1975 29.3469 29.0234C29.381 28.9551 29.4126 28.91 29.4406 28.875C29.471 28.837 29.5024 28.8044 29.5539 28.7529L29.6105 28.6963L29.6476 28.623C29.7137 28.4909 29.7578 28.368 29.7805 28.2324C29.801 28.1089 29.8 27.9896 29.8 27.8994V24.8994C29.7999 24.5003 29.6686 24.061 29.3537 23.7461C29.1289 23.5213 28.7271 23.2228 28.2492 23.2031L28.2502 23.2021C27.3096 23.1081 26.3592 22.8251 25.3537 22.5234C25.1937 22.4568 25.0289 22.428 24.8996 22.415C24.8229 22.4074 24.7474 22.4032 24.6789 22.4014L24.5002 22.3994C24.2464 22.3994 24.04 22.5221 23.9348 22.5879C23.7799 22.6847 23.7507 22.7156 23.676 22.7529L23.6037 22.7891L22.2463 24.1465C22.2283 24.1644 22.1788 24.1957 22.1115 24.2061C22.0496 24.2156 22.006 24.2024 21.9777 24.1836L21.9641 24.1748L21.9494 24.167L21.4816 23.8857C19.1795 22.453 17.2292 20.4465 15.8654 18.1035C15.8434 18.0228 15.8352 17.9458 15.8439 17.8887C15.8527 17.8318 15.8692 17.8207 15.8771 17.8154L15.9182 17.7881L17.3107 16.3955L17.3469 16.3232L17.3488 16.3213V16.3203L17.3498 16.3184V16.3174L17.3517 16.3154V16.3145L17.3527 16.3125V16.3115L17.3547 16.3096V16.3086L17.3557 16.3066V16.3057L17.3576 16.3037V16.3027L17.3586 16.3008V16.2998L17.3605 16.2979V16.2969L17.3615 16.2949V16.2939L17.3635 16.292V16.291L17.3644 16.2891V16.2881L17.3664 16.2861V16.2852L17.3674 16.2832V16.2822L17.3693 16.2803V16.2793L17.3703 16.2773V16.2764L17.3723 16.2744V16.2734L17.3732 16.2715V16.2705L17.3752 16.2686V16.2676L17.3762 16.2656V16.2646L17.3781 16.2627V16.2617L17.3791 16.2598V16.2588L17.381 16.2568V16.2559L17.382 16.2539V16.2529L17.384 16.251V16.25L17.3849 16.248V16.2471L17.3869 16.2451V16.2441L17.3879 16.2422V16.2412L17.3898 16.2393V16.2383L17.3908 16.2363V16.2354L17.3928 16.2334V16.2324L17.3937 16.2305V16.2295L17.3957 16.2275V16.2266L17.3967 16.2246V16.2236L17.3986 16.2217V16.2207L17.3996 16.2188V16.2178L17.4016 16.2158V16.2148L17.4025 16.2129V16.2119L17.4045 16.21V16.209L17.4055 16.207V16.2061L17.4074 16.2041V16.2031L17.4084 16.2012V16.2002L17.4103 16.1982V16.1973L17.4113 16.1953V16.1943L17.4133 16.1924V16.1914L17.4142 16.1895V16.1885L17.4162 16.1865V16.1855L17.4172 16.1836V16.1826L17.4191 16.1807V16.1797L17.4201 16.1777V16.1768L17.4221 16.1748V16.1738L17.423 16.1719V16.1709L17.425 16.1689V16.168L17.426 16.166V16.165L17.4279 16.1631V16.1621L17.4289 16.1602V16.1592L17.4308 16.1572V16.1562L17.4318 16.1543V16.1533L17.4338 16.1514V16.1504L17.4348 16.1484V16.1475L17.4367 16.1455V16.1445L17.4377 16.1426V16.1416L17.4396 16.1396V16.1387L17.4406 16.1367V16.1357L17.4426 16.1338V16.1328L17.4435 16.1309V16.1299L17.4455 16.1279V16.127L17.4465 16.125V16.124L17.4484 16.1221V16.1211L17.4494 16.1191V16.1182L17.4514 16.1162V16.1152L17.4523 16.1133V16.1123L17.4543 16.1104V16.1094L17.4553 16.1074V16.1064L17.4572 16.1045V16.1035L17.4582 16.1016V16.1006L17.4601 16.0986V16.0977L17.4611 16.0957V16.0947L17.4631 16.0928V16.0918L17.4641 16.0898V16.0889L17.466 16.0869V16.0859L17.467 16.084V16.083L17.4689 16.0811V16.0801L17.4699 16.0781V16.0771L17.4719 16.0752V16.0742L17.4728 16.0723V16.0713L17.4748 16.0693V16.0684L17.4758 16.0664V16.0654L17.4777 16.0635V16.0625L17.4787 16.0605V16.0596L17.4807 16.0576V16.0566L17.4816 16.0547V16.0537L17.4836 16.0518V16.0508L17.4846 16.0488V16.0479L17.4865 16.0459V16.0449L17.4875 16.043V16.042L17.4894 16.04V16.0391L17.4904 16.0371V16.0361L17.4924 16.0342V16.0332L17.4933 16.0312V16.0303L17.4953 16.0283V16.0273L17.4963 16.0254V16.0244L17.4982 16.0225V16.0215L17.4992 16.0195V16.0186L17.5012 16.0166V16.0156L17.5021 16.0137V16.0127L17.5041 16.0107V16.0098L17.5051 16.0078V16.0068L17.507 16.0049V16.0039L17.508 16.002V16.001L17.5099 15.999V15.998L17.5109 15.9961V15.9951L17.5129 15.9932V15.9922L17.5139 15.9902V15.9893L17.5158 15.9873V15.9863L17.5168 15.9844V15.9834L17.5187 15.9814V15.9805L17.5197 15.9785V15.9775L17.5217 15.9756V15.9746L17.5226 15.9727V15.9717L17.5246 15.9697V15.9688L17.5256 15.9668V15.9658L17.5275 15.9639V15.9629L17.5285 15.9609V15.96L17.5305 15.958V15.957L17.5314 15.9551V15.9541L17.5334 15.9521V15.9512L17.5344 15.9492V15.9482L17.5363 15.9463V15.9453L17.5373 15.9434V15.9424L17.5392 15.9404V15.9395L17.5402 15.9375V15.9365L17.5422 15.9346V15.9336L17.5432 15.9316V15.9307L17.5451 15.9287V15.9277L17.5461 15.9258V15.9248L17.548 15.9229V15.9219L17.549 15.9199V15.9189L17.551 15.917V15.916L17.5519 15.9141V15.9131L17.5539 15.9111V15.9102L17.5549 15.9082V15.9072L17.5568 15.9053V15.9043L17.5578 15.9023V15.9014L17.5598 15.8994V15.8984L17.5607 15.8965V15.8955L17.5627 15.8936V15.8926L17.5637 15.8906V15.8896L17.5656 15.8877V15.8867L17.5666 15.8848V15.8838L17.5685 15.8818V15.8809L17.5695 15.8789V15.8779L17.5715 15.876V15.875L17.5724 15.873V15.8721L17.5744 15.8701V15.8691L17.5754 15.8672V15.8662L17.5773 15.8643V15.8633L17.5783 15.8613V15.8604L17.5803 15.8584V15.8574L17.5812 15.8555V15.8545L17.5832 15.8525V15.8516L17.5842 15.8496V15.8486L17.5861 15.8467V15.8457L17.5871 15.8438V15.8428L17.5891 15.8408V15.8398L17.59 15.8379V15.8369L17.592 15.835V15.834L17.593 15.832V15.8311L17.5949 15.8291V15.8281L17.5959 15.8262V15.8252L17.5978 15.8232V15.8223L17.5988 15.8203V15.8193L17.6008 15.8174V15.8164L17.6017 15.8145V15.8135L17.6037 15.8115V15.8105L17.6047 15.8086V15.8076L17.6066 15.8057V15.8047L17.6076 15.8027V15.8018L17.6096 15.7998V15.7988L17.6105 15.7969V15.7959L17.6125 15.7939V15.793L17.6135 15.791V15.79L17.6154 15.7881V15.7871L17.6164 15.7852V15.7842L17.6183 15.7822V15.7812L17.6193 15.7793V15.7783L17.6213 15.7764V15.7754L17.6223 15.7734V15.7725L17.6242 15.7705V15.7695L17.6252 15.7676V15.7666L17.6271 15.7646V15.7637L17.6281 15.7617V15.7607L17.6301 15.7588V15.7578L17.631 15.7559V15.7549L17.633 15.7529V15.752L17.634 15.75V15.749L17.6359 15.7471V15.7461L17.6369 15.7441V15.7432L17.6389 15.7412V15.7402L17.6398 15.7383V15.7373L17.6418 15.7354V15.7344L17.6428 15.7324V15.7314L17.6447 15.7295V15.7285L17.6457 15.7266V15.7256L17.6476 15.7236L17.7004 15.6182V15.5C17.7004 15.4028 17.7001 15.2531 17.6848 15.0996C17.6709 14.9618 17.6394 14.7837 17.5627 14.6143H17.5646C17.1864 13.6687 16.9943 12.7168 16.8976 11.75H16.8957C16.8758 11.2725 16.5783 10.8712 16.3537 10.6465L16.2697 10.5625L16.1584 10.5254L15.9289 10.4502C15.6843 10.3735 15.3966 10.2998 15.0998 10.2998H12.0998Z" fill="#3D3D3D" stroke="#3D3D3D"/>
</svg>
