<svg width="40" height="40" viewBox="0 0 40 40" fill="none" xmlns="http://www.w3.org/2000/svg">
<rect width="40" height="40" rx="20" fill="#3BCE57"/>
<path d="M20.1667 10.0371C22.7862 10.0382 25.2446 11.0574 27.0935 12.9082C28.9421 14.7591 29.9597 17.2197 29.9587 19.8359C29.9568 25.2348 25.5632 29.6277 20.1667 29.6279H20.1619C18.5234 29.6274 16.9131 29.2167 15.4832 28.4365L15.4685 28.4277L15.4519 28.4326L10.3083 29.7812L11.6853 24.7559L11.6902 24.7383L11.6814 24.7236C10.8245 23.239 10.3728 21.5541 10.3738 19.8281C10.3762 14.4292 14.7697 10.0371 20.1667 10.0371ZM20.1697 11.6133C15.638 11.6133 11.9529 15.2988 11.9509 19.8281C11.95 21.3802 12.3845 22.8921 13.2068 24.2002L13.3914 24.4941L12.5701 27.4932L12.5515 27.5625L12.6208 27.5439L15.697 26.7363L15.9812 26.9053C17.2428 27.6536 18.689 28.0503 20.1628 28.0508H20.1667C24.6945 28.0506 28.3797 24.3651 28.3816 19.835C28.3825 17.6403 27.5284 15.576 25.9773 14.0234C24.5232 12.5676 22.6199 11.7246 20.5798 11.624L20.1697 11.6133ZM16.6843 15.3291C16.8481 15.3291 17.011 15.3299 17.1531 15.3369V15.3379C17.1733 15.339 17.1947 15.3389 17.2146 15.3389C17.235 15.3388 17.2549 15.3387 17.2751 15.3398C17.3151 15.3422 17.3555 15.3489 17.3962 15.3682C17.4772 15.4066 17.5719 15.4996 17.6697 15.7344C17.7722 15.9801 17.9462 16.405 18.1023 16.7842C18.2576 17.1613 18.3966 17.4962 18.4285 17.5605C18.4872 17.6785 18.5225 17.8071 18.449 17.9541C18.3659 18.1198 18.3276 18.217 18.2087 18.3555C18.0831 18.5018 17.9514 18.6742 17.8425 18.7832C17.7823 18.8432 17.7126 18.9137 17.6794 19.0029C17.6449 19.096 17.6518 19.2036 17.7283 19.335C17.8723 19.5823 18.368 20.3918 19.1033 21.0479C20.0474 21.8895 20.847 22.1524 21.0886 22.2734C21.214 22.3363 21.3203 22.366 21.4167 22.3545C21.515 22.3426 21.596 22.2888 21.6716 22.2021C21.8147 22.0389 22.2875 21.4832 22.4529 21.2344C22.5301 21.1182 22.602 21.0769 22.6755 21.0684C22.7537 21.0594 22.8421 21.0856 22.9558 21.127C23.0659 21.167 23.422 21.3351 23.7839 21.5098C24.1445 21.6838 24.5078 21.8633 24.6306 21.9248C24.7559 21.9876 24.8557 22.0319 24.9343 22.0752C25.0124 22.1182 25.0594 22.1551 25.0837 22.1963L25.0847 22.1973C25.0946 22.214 25.1057 22.2557 25.1111 22.3242C25.1162 22.3908 25.1159 22.4773 25.1072 22.5791C25.0896 22.7832 25.0384 23.0466 24.9373 23.3301C24.8397 23.6034 24.5534 23.8718 24.2253 24.082C23.8983 24.2916 23.5404 24.4365 23.3123 24.4707C22.8924 24.5334 22.364 24.5594 21.7839 24.375C21.4276 24.262 20.9708 24.1108 20.3865 23.8584C17.9343 22.799 16.3311 20.3282 16.2058 20.1611C16.1443 20.0791 15.8953 19.7488 15.6619 19.2891C15.4278 18.8279 15.2107 18.2399 15.2107 17.6445C15.2107 16.453 15.8351 15.869 16.0603 15.623C16.2763 15.3873 16.5303 15.3292 16.6843 15.3291Z" fill="white" stroke="white" stroke-width="0.0834177"/>
</svg>
